<svg width="22" height="22" viewBox="0 0 22 22" fill="none" xmlns="http://www.w3.org/2000/svg">
<path d="M0.00865009 11.4837C0.00503803 11.2114 0.00142598 10.9392 0.0153464 10.6344C0.112427 10.3818 0.169588 10.1483 0.275646 9.94387C0.615907 9.28804 0.975355 8.64366 1.32542 7.99364C2.46499 5.8776 3.60184 3.75988 4.74375 1.64528C5.11529 0.957278 5.67849 0.550668 6.42097 0.546722C9.48087 0.530459 12.5409 0.536877 15.6009 0.543017C16.0911 0.544 16.5153 0.752928 16.8813 1.10391C17.1604 1.3716 17.3221 1.7249 17.5043 2.06162C18.4474 3.80385 19.3924 5.54499 20.3217 7.29569C20.8859 8.35868 21.5106 9.38593 21.992 10.4985C21.9958 10.8474 21.9996 11.1963 21.9861 11.5773C21.8651 11.8503 21.7754 12.0995 21.6548 12.3302C21.4194 12.7805 21.1667 13.2205 20.9062 13.6628C20.8252 13.6045 20.7536 13.5542 20.6941 13.4907C19.7272 12.4579 18.7619 11.4235 17.7962 10.3895C17.2703 9.82647 16.7449 9.26306 16.2182 8.70093C16.1539 8.63235 16.1006 8.54114 15.9835 8.53381C15.9425 8.45806 15.9427 8.36412 15.8442 8.36428C15.596 8.36466 15.3477 8.3644 15.1023 8.3644C15.0774 8.4281 15.0598 8.46936 15.0449 8.51167C14.7954 9.21949 14.5476 9.928 14.2966 10.6352C14.1395 11.0775 13.9777 11.5179 13.8032 11.9574C13.7281 11.9042 13.6646 11.8563 13.6081 11.8003C13.4622 11.6553 13.3195 11.5067 13.1743 11.3435C13.1356 11.2946 13.1012 11.2559 13.0598 11.2299C12.747 11.0337 12.4331 10.8395 12.119 10.6458C12.084 10.6242 12.0453 10.6095 11.9783 10.5771C11.9783 10.7227 11.9839 10.8417 11.9761 10.9597C11.972 11.0216 11.9444 11.0817 11.9223 11.1275C11.8945 11.0829 11.8739 11.0512 11.8488 11.0243C11.2207 10.3509 10.5923 9.67794 9.96339 9.00554C9.93328 8.97335 9.89768 8.94705 9.85175 8.90394C9.76157 8.88457 9.68433 8.87546 9.607 8.87462C9.2035 8.87024 8.79998 8.86797 8.38976 8.85195C8.09108 8.52421 7.79987 8.20867 7.50609 7.89589C7.47244 7.86006 7.42441 7.83971 7.37545 7.79447C7.14185 7.67643 6.91121 7.75238 6.65491 7.72965C6.65491 8.11915 6.65491 8.48321 6.65491 8.87398C6.36479 8.87398 6.10151 8.87398 5.83823 8.87398C5.58027 8.87398 5.3223 8.87304 5.06434 8.87424C4.80214 8.87547 4.53954 8.86866 4.26408 8.8795C4.26408 9.06956 4.26013 9.23005 4.2662 9.39011C4.26835 9.44671 4.29497 9.50225 4.31611 9.57258C4.33522 9.60472 4.34721 9.62406 4.36223 9.64016C5.03856 10.3651 5.71487 11.09 6.39246 11.8136C6.43207 11.8559 6.48231 11.8868 6.5185 11.9359C6.00044 12.409 5.45108 12.7988 4.82368 13.0422C4.7991 13.0104 4.76692 12.9749 4.75739 12.9809C4.55942 13.1049 4.35487 13.0676 4.14806 13.0196C4.107 13.01 4.06237 13.0182 4.01939 13.0182C3.15258 13.0182 2.28575 13.0152 1.41896 13.0203C1.20596 13.0216 0.993082 13.0495 0.768108 13.0563C0.489519 12.5357 0.166055 12.0552 0.00865009 11.4837Z" fill="#3682A5"/>
<path d="M20.9046 13.6624C20.7638 13.9647 20.6116 14.2673 20.4515 14.565C19.6596 16.0381 18.8665 17.5106 18.0717 18.9819C17.7745 19.532 17.4895 20.091 17.1662 20.6231C16.7931 21.2371 16.2398 21.5431 15.554 21.5459C14.2425 21.5511 12.9311 21.5473 11.5983 21.5274C11.5488 21.4643 11.5255 21.4161 11.4917 21.3787C10.9635 20.7958 10.4393 20.2085 9.90384 19.6333C8.21427 17.8183 6.52029 16.008 4.82844 14.1955C4.76788 14.1306 4.71176 14.0609 4.66682 13.9844C5.55147 13.6044 6.34929 13.0996 7.07264 12.4472C7.82221 13.1083 8.64666 13.6004 9.55871 13.9556C9.68799 13.7022 9.80678 13.4694 9.93641 13.2153C9.08349 12.8935 8.27784 12.5293 7.59321 11.8871C8.06799 11.3022 8.4355 10.6805 8.66603 9.94989C8.4074 9.94989 8.16815 9.94989 7.91821 9.94989C7.69413 10.4447 7.4551 10.9277 7.08861 11.3399C6.72826 10.9027 6.45643 10.4367 6.22807 9.9538C5.98052 9.9538 5.74882 9.9538 5.47832 9.9538C5.61455 10.2488 5.72106 10.5248 5.86375 10.7772C6.04878 11.1046 6.26439 11.4121 6.46241 11.7313C6.49662 11.7864 6.59225 11.8264 6.52605 11.9226C6.48076 11.8864 6.43052 11.8555 6.3909 11.8132C5.71331 11.0896 5.037 10.3647 4.36068 9.63976C4.34566 9.62366 4.33366 9.60432 4.33452 9.56872C6.18007 9.54982 8.01137 9.54871 9.86308 9.54758C9.86308 9.3151 9.86308 9.11636 9.86308 8.91762C9.89613 8.94666 9.93173 8.97296 9.96184 9.00515C10.5908 9.67754 11.2192 10.3505 11.8472 11.0239C11.8723 11.0508 11.8929 11.0825 11.9007 11.1308C11.1276 11.1497 10.3696 11.1497 9.60203 11.1497C9.60203 11.2897 9.60203 11.4016 9.60203 11.5439C10.3957 11.5439 11.1792 11.5439 11.9671 11.5439C11.975 11.7297 11.9816 11.8855 11.9896 12.0738C12.4045 11.8235 12.7892 11.5914 13.1739 11.3592C13.3179 11.5063 13.4607 11.6549 13.6066 11.7999C13.663 11.8559 13.7266 11.9038 13.8011 11.9742C13.5715 12.6928 13.3277 13.3926 13.0796 14.1049C13.3442 14.1049 13.5779 14.1049 13.8219 14.1049C14.0171 13.5315 14.21 12.965 14.4039 12.3954C15.1113 12.3954 15.8031 12.3954 16.5075 12.3954C16.696 12.9699 16.8826 13.5383 17.0668 14.0997C17.3378 14.0997 17.5894 14.0997 17.856 14.0997C17.823 13.9928 17.7984 13.9057 17.7694 13.8203C17.4178 12.7835 17.0645 11.7473 16.714 10.71C16.4706 9.98974 16.2309 9.26805 15.9896 8.547C16.099 8.54074 16.1524 8.63195 16.2166 8.70054C16.7433 9.26267 17.2688 9.82607 17.7946 10.3891C18.7603 11.4231 19.7257 12.4576 20.6926 13.4903C20.752 13.5538 20.8236 13.6041 20.9046 13.6624Z" fill="#3682A5"/>
<path d="M4.65467 13.9935C4.71286 14.0609 4.76897 14.1306 4.82953 14.1955C6.52139 16.008 8.21536 17.8183 9.90494 19.6333C10.4404 20.2085 10.9646 20.7957 11.4928 21.3787C11.5266 21.4161 11.5499 21.4643 11.5795 21.5233C11.4952 21.542 11.4095 21.5474 11.3237 21.5475C9.71955 21.548 8.11536 21.5469 6.51118 21.5483C5.72435 21.5489 5.13634 21.1714 4.74672 20.4542C3.78738 18.6882 2.83941 16.9151 1.88665 15.145C1.51916 14.4622 1.1511 13.7798 0.781494 13.081C0.992621 13.0491 1.20549 13.0212 1.4185 13.0199C2.28529 13.0148 3.15212 13.0178 4.01893 13.0178C4.06191 13.0178 4.10654 13.0096 4.1476 13.0192C4.35441 13.0672 4.55896 13.1045 4.75693 12.9805C4.76646 12.9745 4.79864 13.01 4.81026 13.0515C4.60169 13.1587 4.40313 13.2406 4.19032 13.3284C4.30289 13.5275 4.41331 13.7306 4.53278 13.9273C4.55428 13.9627 4.61309 13.9721 4.65467 13.9935Z" fill="#3682A5"/>
<path d="M15.9837 8.53294C16.2327 9.26757 16.4723 9.98926 16.7157 10.7095C17.0662 11.7468 17.4196 12.783 17.7711 13.8198C17.8001 13.9052 17.8247 13.9923 17.8578 14.0992C17.5911 14.0992 17.3395 14.0992 17.0686 14.0992C16.8843 13.5378 16.6977 12.9694 16.5092 12.3949C15.8048 12.3949 15.113 12.3949 14.4057 12.3949C14.2117 12.9645 14.0188 13.531 13.8236 14.1044C13.5796 14.1044 13.3459 14.1044 13.0813 14.1044C13.3295 13.3921 13.5732 12.6923 13.8176 11.9754C13.9778 11.517 14.1397 11.0766 14.2967 10.6343C14.5478 9.92713 14.7956 9.21862 15.0451 8.51079C15.06 8.46848 15.0775 8.42723 15.1024 8.36353C15.3479 8.36353 15.5961 8.36379 15.8444 8.3634C15.9429 8.36325 15.9427 8.45719 15.9837 8.53294ZM14.944 10.7892C14.8392 11.1038 14.7343 11.4184 14.6276 11.7382C14.9752 11.7893 16.1321 11.7716 16.2899 11.7102C16.0247 10.8953 15.7594 10.08 15.4778 9.21487C15.2925 9.76243 15.1244 10.2591 14.944 10.7892Z" fill="#FCFDFF"/>
<path d="M4.66704 13.9844C4.61222 13.9721 4.55342 13.9627 4.53191 13.9273C4.41244 13.7306 4.30202 13.5275 4.18945 13.3284C4.40226 13.2406 4.60082 13.1587 4.81234 13.0671C5.44975 12.7984 5.99911 12.4086 6.51717 11.9356C6.59247 11.8264 6.49684 11.7864 6.46264 11.7313C6.26461 11.4121 6.04901 11.1046 5.86398 10.7772C5.72129 10.5248 5.61478 10.2488 5.47855 9.9538C5.74905 9.9538 5.98074 9.9538 6.2283 9.9538C6.45666 10.4367 6.72849 10.9027 7.08883 11.3399C7.45533 10.9277 7.69435 10.4447 7.91844 9.94989C8.16838 9.94989 8.40763 9.94989 8.66626 9.94989C8.43573 10.6805 8.06821 11.3022 7.59344 11.8871C8.27807 12.5293 9.08372 12.8935 9.93664 13.2153C9.80701 13.4694 9.68822 13.7023 9.55894 13.9556C8.64688 13.6004 7.82244 13.1083 7.07287 12.4472C6.34952 13.0996 5.5517 13.6044 4.66704 13.9844Z" fill="#FBFCFE"/>
<path d="M9.8509 8.90399C9.86379 9.11681 9.86379 9.31555 9.86379 9.54803C8.01208 9.54915 6.18078 9.55027 4.32952 9.55485C4.29412 9.5023 4.2675 9.44677 4.26535 9.39016C4.25928 9.23011 4.26322 9.06961 4.26322 8.87955C4.53869 8.86871 4.80129 8.87552 5.06349 8.8743C5.32145 8.87309 5.57942 8.87403 5.83738 8.87403C6.10066 8.87403 6.36394 8.87403 6.65406 8.87403C6.65406 8.48326 6.65406 8.1192 6.65406 7.7297C6.91036 7.75243 7.141 7.67649 7.37081 7.81579C7.37463 8.18739 7.37463 8.52001 7.37463 8.86502C7.73093 8.86502 8.06328 8.86502 8.39562 8.86502C8.79913 8.86802 9.20265 8.8703 9.60615 8.87467C9.68348 8.87551 9.76072 8.88463 9.8509 8.90399Z" fill="#EAF1FF"/>
<path d="M13.1743 11.3427C12.7907 11.5909 12.406 11.8231 11.9911 12.0734C11.9831 11.885 11.9764 11.7293 11.9685 11.5434C11.1807 11.5434 10.3972 11.5434 9.60352 11.5434C9.60352 11.4012 9.60352 11.2893 9.60352 11.1493C10.3711 11.1493 11.1291 11.1493 11.9072 11.1456C11.9443 11.0809 11.9719 11.0208 11.976 10.9588C11.9838 10.8409 11.9783 10.7219 11.9783 10.5763C12.0453 10.6087 12.0839 10.6234 12.1189 10.645C12.433 10.8387 12.747 11.0328 13.0597 11.2291C13.1011 11.2551 13.1355 11.2938 13.1743 11.3427Z" fill="#F9FBFE"/>
<path d="M8.38879 8.85151C8.06316 8.86452 7.73082 8.86452 7.37451 8.86452C7.37451 8.51952 7.37451 8.1869 7.37829 7.83301C7.42344 7.83927 7.47147 7.85962 7.50513 7.89545C7.79891 8.20823 8.09011 8.52377 8.38879 8.85151Z" fill="#3682A5"/>
<path d="M14.9481 10.773C15.1223 10.2596 15.2904 9.76296 15.4757 9.21539C15.7572 10.0806 16.0226 10.8958 16.2878 11.7107C16.13 11.7722 14.9731 11.7898 14.6255 11.7388C14.7321 11.4189 14.837 11.1043 14.9481 10.773Z" fill="#3682A5"/>
</svg>
