<svg xmlns="http://www.w3.org/2000/svg" width="512" height="512" style="shape-rendering:geometricPrecision;text-rendering:geometricPrecision;image-rendering:optimizeQuality;fill-rule:evenodd;clip-rule:evenodd"><path style="opacity:.02" fill="#3b3b3b" d="M-.5-.5h2c-.333 1-1 1.667-2 2v-2z"/><path style="opacity:.024" fill="#474747" d="M16.5-.5h5c-7 7.667-14.333 15-22 22v-5c6-5.333 11.667-11 17-17zM36.5-.5h5a1247.638 1247.638 0 0 1-42 42v-5c12.667-12 25-24.333 37-37zM56.5-.5h5c-20.333 21-41 41.667-62 62v-5a2297.796 2297.796 0 0 0 57-57zM76.5-.5h5c-27 27.667-54.333 55-82 82v-5c26-25.333 51.667-51 77-77zM96.5-.5h5a7357.651 7357.651 0 0 1-102 102v-5c32.667-32 65-64.333 97-97zM116.5-.5h5c-40.333 41-81 81.667-122 122v-5a9680.73 9680.73 0 0 0 117-117zM136.5-.5h5c-47 47.667-94.333 95-142 142v-5c46-45.333 91.667-91 137-137zM156.5-.5h5a18567.7 18567.7 0 0 1-162 162v-5c52.667-52 105-104.333 157-157zM176.5-.5h5c-60.333 61-121 121.667-182 182v-5a22165.316 22165.316 0 0 0 177-177zM196.5-.5h5c-67 67.667-134.333 135-202 202v-5c66-65.333 131.667-131 197-197zM216.5-.5h5c-30.333 31-61 61.667-92 92 .65-1.935.983-3.935 1-6 .667 0 1-.333 1-1 28.667-28 57-56.333 85-85zM236.5-.5h5l-70 71c-.667 0-1 .333-1 1a28.932 28.932 0 0 1-8 3l74-75zM256.5-.5h5l-60 61c-2.904 1.114-4.904 3.114-6 6l-30 29 1-6c.667 0 1-.333 1-1 30-29.333 59.667-59 89-89zM276.5-.5h5l-61 62c-.667 0-1 .333-1 1-.667 0-1 .333-1 1l-22 21 1-6c.667 0 1-.333 1-1a4304.582 4304.582 0 0 0 78-78zM296.5-.5h5l-52 53h-5l52-53zM316.5-.5h5c-21.333 22-43 43.667-65 65l1-6c20-19.333 39.667-39 59-59zM336.5-.5h5l-87 88a6.544 6.544 0 0 1-3-3c28.667-28 57-56.333 85-85z"/><path style="opacity:.024" fill="#464646" d="M356.5-.5h5c-20.333 21-41 41.667-62 62 .703-2.216 2.036-4.049 4-5.5a2.427 2.427 0 0 0-2-.5l55-56z"/><path style="opacity:.024" fill="#474747" d="M376.5-.5h5l-97 98c-.667 0-1 .333-1 1a19.24 19.24 0 0 1-6 1l99-100zM396.5-.5h5l-65 66a19.24 19.24 0 0 0-6 1l66-67zM416.5-.5h5l-69 70c-1.653-.16-2.986-.826-4-2 23-22.333 45.667-45 68-68zM436.5-.5h5c-31.333 32-63 63.667-95 95 0-1.333-.667-2-2-2l92-93zM456.5-.5h5l-109 110c-.667 0-1 .333-1 1-8.667 8-17 16.333-25 25l-3-2 133-134zM476.5-.5h5l-89 90-3-2 87-88zM496.5-.5h5l-110 111c-1.21-.432-2.21-1.099-3-2l108-109zM511.5 5.5v5c-31.667 31-63 62.333-94 94a29.417 29.417 0 0 0-7 2c33.333-34 67-67.667 101-101zM511.5 25.5v5l-79 78c-.333-1-1-1.667-2-2a4642.057 4642.057 0 0 1 81-81zM511.5 45.5v5c-36.667 36-73 72.333-109 109-1.527.073-2.527-.594-3-2 37-37.667 74.333-75 112-112z"/><path style="opacity:.851" fill="#0face2" d="M244.5 52.5h5c4.106.109 6.773 2.109 8 6l-1 6c-2 2.667-4.333 5-7 7a109.17 109.17 0 0 1-8 3.5 10.51 10.51 0 0 0 3 2.5c2 2.667 4.333 5 7 7a6.544 6.544 0 0 0 3 3c2.049 3.05 4.716 5.383 8 7 .79.901 1.79 1.568 3 2a30.555 30.555 0 0 0 12 3 19.24 19.24 0 0 0 6-1c.667 0 1-.333 1-1 8.677-3.813 9.011-2.98 1 2.5a20.093 20.093 0 0 1-6 1.5 19.22 19.22 0 0 1-6 1 38.496 38.496 0 0 1-13-2c-.79-.901-1.79-1.568-3-2a3770.157 3770.157 0 0 1-8-7c-.333-1-1-1.667-2-2-2.333-3-5-5.667-8-8 .073-1.527-.594-2.527-2-3a184.223 184.223 0 0 0-2-3 61.972 61.972 0 0 1 10-4.5c5.427-3.325 6.927-7.825 4.5-13.5-1.11-1.537-2.61-2.203-4.5-2-5.846-.04-8.846 2.96-9 9a117.417 117.417 0 0 0-8 23c-.667 0-1 .333-1 1l-1 6c-.734 1.208-1.067 2.541-1 4-2.447.115-4.447 1.115-6 3-1.333 0-2-.667-2-2a285.732 285.732 0 0 0 10-25l3-8a53.768 53.768 0 0 0 2-8c-6.447 1.11-10.78 4.776-13 11a9.86 9.86 0 0 1-1-6c.667 0 1-.333 1-1 .667 0 1-.333 1-1 7.389-4.575 15.389-7.575 24-9zm1 3c1.89-.203 3.39.463 4.5 2 2.427 5.675.927 10.175-4.5 13.5a61.972 61.972 0 0 0-10 4.5 184.223 184.223 0 0 1 2 3 57.484 57.484 0 0 1-9 9 117.417 117.417 0 0 1 8-23 57.484 57.484 0 0 0 9-9z"/><path style="opacity:.879" fill="#10ace1" d="M301.5 55.5a2.427 2.427 0 0 1 2 .5c-1.964 1.451-3.297 3.284-4 5.5a788.147 788.147 0 0 1-23 29c-2.351 1.729-5.018 2.396-8 2 2.19-3.752 5.357-7.42 9.5-11a79.765 79.765 0 0 0 6.5-9 80.635 80.635 0 0 0 10-14 3.647 3.647 0 0 0-1-1.5l-6-1c1.272-1.046 2.772-1.546 4.5-1.5 3.143.607 6.31.94 9.5 1z"/><path style="opacity:.024" fill="#484848" d="M245.5 55.5a57.484 57.484 0 0 1-9 9c.154-6.04 3.154-9.04 9-9z"/><path style="opacity:.839" fill="#07ade5" d="M201.5 60.5c.876-.13 1.543.203 2 1-2.866 4.932-4.532 10.265-5 16-.667 0-1 .333-1 1l-1 6a84.03 84.03 0 0 0-1 16 6.547 6.547 0 0 0 3 3c3.163-.821 5.83-2.488 8-5 1.021.502 1.188 1.168.5 2a33.142 33.142 0 0 1-12.5 7c-1.171-.845-2.505-1.511-4-2a38.287 38.287 0 0 1-1.5-7c-4.956 9.809-12.789 15.475-23.5 17l-4-1c-.706-1.057-1.039-.724-1 1-2.311 5.645-6.311 9.645-12 12-.667 0-1 .333-1 1a183.427 183.427 0 0 0-32 17c-.543-.06-.876-.393-1-1 1.13-1.122 1.797-2.456 2-4a126.699 126.699 0 0 0 3-18c.667 0 1-.333 1-1a19.22 19.22 0 0 1 1-6 259.021 259.021 0 0 0 2-17c.841-1.88 1.175-3.88 1-6a4.934 4.934 0 0 0-.5-3c-7.407 5.906-13.907 12.572-19.5 20-1.141-1.921-1.308-3.921-.5-6a829.778 829.778 0 0 1 26.5-22c.886.825 1.219 1.825 1 3-.667 0-1 .333-1 1a19.222 19.222 0 0 1-1 6 148.51 148.51 0 0 0-2 17c-.667 0-1 .333-1 1v5a166.426 166.426 0 0 0-3 18 12.93 12.93 0 0 0 .5 5c.383-.556.883-.889 1.5-1 .667 0 1-.333 1-1a100.203 100.203 0 0 0 28-17c4.201-4.305 4.868-8.971 2-14 .321-1.548 1.321-2.215 3-2a19.22 19.22 0 0 1 1-6 388.189 388.189 0 0 0 4-19c1.333-.333 1.333-.667 0-1l-6 1c-1.879.107-2.212-.393-1-1.5a42.584 42.584 0 0 1 5-1.5 28.932 28.932 0 0 0 8-3c.667 0 1-.333 1-1 .876-.13 1.543.203 2 1-3.37 5.125-5.37 10.791-6 17-.667 0-1 .333-1 1l-1 6a76.181 76.181 0 0 1-2 8.5c.489 2.209 1.489 4.042 3 5.5.787 1.604 2.12 2.271 4 2 .667 0 1-.333 1-1 8.631-2.631 14.298-8.298 17-17 .667 0 1-.333 1-1a29.413 29.413 0 0 0 2-7 240 240 0 0 0 4-19c1.096-2.886 3.096-4.886 6-6zm-13 33c-2.702 8.702-8.369 14.369-17 17 5.333-6 11-11.667 17-17zm-32 11c2.868 5.029 2.201 9.695-2 14a100.203 100.203 0 0 1-28 17l30-31z"/><path style="opacity:.854" fill="#0aade3" d="M336.5 65.5c4.116.04 8.116.707 12 2 1.014 1.174 2.347 1.84 4 2a20.967 20.967 0 0 1 3 4.5 935.233 935.233 0 0 1-3.5 5.5c-1.049 1.017-2.216 1.184-3.5.5 2.047-2.33 2.38-4.83 1-7.5a6.544 6.544 0 0 0-3-3c-5.57-2.869-10.903-2.535-16 1-8.667 4-15 10.333-19 19-2.816 5.524-1.149 9.19 5 11 1.208.734 2.541 1.067 4 1 9.289.352 17.289-2.648 24-9 1.333 0 2 .667 2 2-1.333 2-3 3.667-5 5l-8 3a67.246 67.246 0 0 1-15 1c-1.068-.934-2.401-1.268-4-1-3.46-1.401-6.126-3.734-8-7-.734-1.208-1.067-2.541-1-4 3.64-12.974 11.974-21.307 25-25a19.24 19.24 0 0 1 6-1z"/><path style="opacity:.024" fill="#474747" d="M511.5 65.5v5l-100 99c-.901-.79-1.568-1.79-2-3l102-101zM230.5 66.5a15515.22 15515.22 0 0 1-3 8c-10 9.333-19.667 19-29 29a6.547 6.547 0 0 1-3-3l35-34zM346.5 69.5a6.544 6.544 0 0 1 3 3c-10 9.333-19.667 19-29 29-1.459.067-2.792-.266-4-1l30-31z"/><path style="opacity:.024" fill="#484a4b" d="M330.5 70.5c-6 6.667-12.333 13-19 19 4-8.667 10.333-15 19-19z"/><path style="opacity:.024" fill="#464646" d="m249.5 71.5-5 6a10.51 10.51 0 0 1-3-2.5 109.17 109.17 0 0 0 8-3.5z"/><path style="opacity:.024" fill="#474747" d="M164.5 76.5v1l-38 37v-5c.667 0 1-.333 1-1 10.667-10 21-20.333 31-31l6-1z"/><path style="opacity:.024" fill="#474748" d="M237.5 78.5c1.406.473 2.073 1.473 2 3-4 4.667-8.333 9-13 13l1-6c.667 0 1-.333 1-1a57.484 57.484 0 0 0 9-9z"/><path style="opacity:.024" fill="#474b4c" d="M284.5 72.5a79.765 79.765 0 0 1-6.5 9c-4.143 3.58-7.31 7.248-9.5 11l-3 4c-1.21-.432-2.21-1.099-3-2 7-7.667 14.333-15 22-22z"/><path style="opacity:.024" fill="#474747" d="M191.5 85.5a29.413 29.413 0 0 1-2 7c-.667 0-1 .333-1 1-6 5.333-11.667 11-17 17-.667 0-1 .333-1 1-1.88.271-3.213-.396-4-2l25-24zM511.5 85.5v5l-94 93c-.904-.709-1.237-1.709-1-3 31.333-32 63-63.667 95-95zM247.5 89.5c1 .333 1.667 1 2 2l-35 36h-5c12.333-13 25-25.667 38-38z"/><path style="opacity:.024" fill="#4b4b4b" d="M387.5 89.5c1.528.017 2.028.684 1.5 2-2.478 2.32-5.311 3.986-8.5 5 2-2.667 4.333-5 7-7z"/><path style="opacity:.024" fill="#474747" d="M305.5 91.5c-.067 1.459.266 2.792 1 4-14.667 14-29 28.333-43 43-1.879.841-3.879 1.175-6 1a1630.981 1630.981 0 0 1 48-48zM124.5 92.5c.175 2.12-.159 4.12-1 6l-124 123v-5l125-124zM160.5 96.5a19.22 19.22 0 0 0-1 6c-1.679-.215-2.679.452-3 2l-30 31c-.667 0-1 .333-1 1-.617.111-1.117.444-1.5 1a12.93 12.93 0 0 1-.5-5l37-36zM257.5 98.5c1.21.432 2.21 1.099 3 2-10 10.667-20.333 21-31 31-1.291.237-2.291-.096-3-1l31-32zM217.5 99.5c0 1.333.667 2 2 2l-28 29c-.667 0-1 .333-1 1-7.722 5.214-14.722 11.381-21 18.5a19.177 19.177 0 0 1-5 2.5c17.333-18 35-35.667 53-53z"/><path style="opacity:.024" fill="#464646" d="m341.5 99.5-28 29c-1.599.268-2.932-.066-4-1l24-25 8-3z"/><path style="opacity:.024" fill="#474747" d="m279.5 101.5-35 36c-1.459.067-2.792-.266-4-1l33-34a19.22 19.22 0 0 0 6-1zM314.5 102.5c1.599-.268 2.932.066 4 1a407.878 407.878 0 0 0-24 24c-.667 0-1 .333-1 1l-6 1a516.173 516.173 0 0 1 27-27z"/><path style="opacity:.84" fill="#0aace2" d="m389.5 87.5 3 2c2.475.593 3.975 1.926 4.5 4a440.995 440.995 0 0 0-17.5 9.5c3.028 1.844 6.028 3.678 9 5.5.79.901 1.79 1.568 3 2 2.006 1.011 4.006 2.011 6 3a75.94 75.94 0 0 0 13-7 29.417 29.417 0 0 1 7-2c4.51-.229 8.843.438 13 2 1 .333 1.667 1 2 2-1.459.067-2.792-.266-4-1-8.096.054-15.429 2.387-22 7a54.032 54.032 0 0 0-12 7c-.667 0-1 .333-1 1-.667 0-1 .333-1 1-.667 0-1 .333-1 1-2.333.333-3.667 1.667-4 4-.667 0-1 .333-1 1a6.547 6.547 0 0 0 3 3c1.812.271 3.478.938 5 2-2.293.527-4.627.194-7-1l-4-1c-2.633-1.16-3.466-3.16-2.5-6a107.274 107.274 0 0 1 12.5-11c-.783-1.788-2.116-2.788-4-3-.79-.901-1.79-1.568-3-2-3.015-2.174-6.349-3.841-10-5-.06-.543-.393-.876-1-1l-8 4c-.667 0-1 .333-1 1a55.078 55.078 0 0 1-9 4c-2.487-.259-4.487-1.259-6-3 .667 0 1-.333 1-1 10.34-3.521 19.673-7.854 28-13 3.189-1.014 6.022-2.68 8.5-5 .528-1.316.028-1.983-1.5-2-3.918-4.086-3.252-4.753 2-2z"/><path style="opacity:.024" fill="#474747" d="m376.5 105.5-40 39c-1-.333-1.667-1-2-2l32-33c.667 0 1-.333 1-1l8-4c.607.124.94.457 1 1zM190.5 105.5c1.495.489 2.829 1.155 4 2-16 15.333-31.667 31-47 47-1.599.268-2.932-.066-4-1l47-48zM511.5 105.5v5a4994.516 4994.516 0 0 0-84 84c-1.88.271-3.213-.396-4-2l88-87zM428.5 107.5c1.208.734 2.541 1.067 4 1l-45 46-4-1 45-46zM386.5 110.5c1.21.432 2.21 1.099 3 2-14 13.333-27.667 27-41 41-1.653-.16-2.986-.826-4-2l42-41zM406.5 114.5l-17 18a6.547 6.547 0 0 1-3-3c.667 0 1-.333 1-1 1.667-1 3-2.333 4-4 .667 0 1-.333 1-1 .667 0 1-.333 1-1 .667 0 1-.333 1-1a54.032 54.032 0 0 1 12-7zM121.5 115.5a19.22 19.22 0 0 0-1 6c-.667 0-1 .333-1 1l-120 119v-5l122-121zM161.5 114.5l4 1-37 38-6 1 25-26c.667 0 1-.333 1-1 5.689-2.355 9.689-6.355 12-12 .667 0 1-.333 1-1zM511.5 125.5v5a3370.082 3370.082 0 0 0-69 69c-1.208-.734-2.541-1.067-4-1 24-24.667 48.333-49 73-73z"/><path style="opacity:.964" fill="#010101" d="M209.5 127.5h5l12 3c.709.904 1.709 1.237 3 1a83.009 83.009 0 0 0 11 5c1.208.734 2.541 1.067 4 1 4.045 1.677 8.378 2.344 13 2 2.121.175 4.121-.159 6-1a182.989 182.989 0 0 0 24-9l6-1c.667 0 1-.333 1-1h15c1.068.934 2.401 1.268 4 1a35.145 35.145 0 0 1 10 5l3 2 8 7c.333 1 1 1.667 2 2 2.049 3.05 4.716 5.383 8 7 1.014 1.174 2.347 1.84 4 2a59.567 59.567 0 0 0 14 1 19.22 19.22 0 0 0 6-1h15l4 1a30.529 30.529 0 0 1 12 3c.473 1.406 1.473 2.073 3 2a34.832 34.832 0 0 1 7 7c.432 1.21 1.099 2.21 2 3a124.253 124.253 0 0 1 5 11c-.237 1.291.096 2.291 1 3 .493 4.134 2.493 7.134 6 9 .787 1.604 2.12 2.271 4 2a53.837 53.837 0 0 0 11 4c1.459-.067 2.792.266 4 1l12 3c.473 1.406 1.473 2.073 3 2 3.516 1.256 6.516 3.256 9 6 .333 1 1 1.667 2 2 2.166 3.338 3.499 7.005 4 11-.268 1.599.066 2.932 1 4l-2 17c-.268 1.599.066 2.932 1 4 1.794 3.245 4.461 5.579 8 7 .473 1.406 1.473 2.073 3 2a62.722 62.722 0 0 0 9 6c.473 1.406 1.473 2.073 3 2 2.362 2.692 4.696 5.359 7 8 .16 1.653.826 2.986 2 4a61.26 61.26 0 0 1 1 13l-3 8a156.568 156.568 0 0 0-7.5 13c-.977 3.317-.144 5.984 2.5 8-.073 1.527.594 2.527 2 3a62.722 62.722 0 0 0 6 9c-.237 1.291.096 2.291 1 3a84.062 84.062 0 0 0 5 11v25c-3.048 5.381-7.381 9.381-13 12a19.22 19.22 0 0 1-6 1c-5 1.333-10 1.333-15 0h-464c-3.445-1.23-6.445-3.23-9-6l-2-3a362.15 362.15 0 0 0-3-6v-20c1.268-2.405 1.935-5.072 2-8 .667 0 1-.333 1-1 1.34-3.029 2.673-6.029 4-9a191.014 191.014 0 0 1 9.5-14c.859-3.571.026-6.571-2.5-9 .073-1.527-.594-2.527-2-3a1690.865 1690.865 0 0 0-5-10c.237-1.291-.096-2.291-1-3a50.848 50.848 0 0 1 2-17c.667 0 1-.333 1-1 .667 0 1-.333 1-1 .667 0 1-.333 1-1a25.647 25.647 0 0 1 6-6c.667 0 1-.333 1-1 .667 0 1-.333 1-1 .667 0 1-.333 1-1 7.487-3.324 13.987-7.991 19.5-14 .495-1.973.662-3.973.5-6 .067-1.459-.266-2.792-1-4-1.009-5.027-1.009-10.027 0-15 .322-1.975.322-3.642 0-5 3.333-5.333 7.667-9.667 13-13 2.97-1.327 5.97-2.66 9-4a487.979 487.979 0 0 0 21-6c5.934-.973 9.934-4.306 12-10-.124-.607-.457-.94-1-1a145.18 145.18 0 0 1 9.5-19c5.498-6.166 12.332-9.832 20.5-11l6-1h15c1.068.934 2.401 1.268 4 1 5.859.449 11.525-.217 17-2a19.177 19.177 0 0 0 5-2.5c6.278-7.119 13.278-13.286 21-18.5.667 0 1-.333 1-1 5.772-2.275 11.772-3.275 18-3z"/><path style="opacity:.024" fill="#474747" d="m383.5 132.5 4 1-19 20a19.22 19.22 0 0 1-6 1l21-22z"/><path style="opacity:.024" fill="#464647" d="M116.5 140.5c-.203 1.544-.87 2.878-2 4 .124.607.457.94 1 1l-55 56c-3.03 1.34-6.03 2.673-9 4 21.333-22 43-43.667 65-65z"/><path style="opacity:.992" fill="#fefefe" d="M394.5 175.5a20.673 20.673 0 0 1 3.5 4c3.522 10.165 8.688 19.332 15.5 27.5a36.16 36.16 0 0 0 7 4 436.846 436.846 0 0 1 28 8 32.005 32.005 0 0 1 7.5 5.5c-.07 7.337-.57 14.67-1.5 22 .003 2.525.337 4.859 1 7a31.515 31.515 0 0 0 5.5 9 341.163 341.163 0 0 1 14.5 11c.342.838 1.008 1.172 2 1 0 .667.333 1 1 1a25.913 25.913 0 0 1 9 8c-.172.992.162 1.658 1 2v1a202.286 202.286 0 0 0-9 17c-.838.342-1.172 1.008-1 2-1.145 3.811-1.312 7.811-.5 12 .204 3.297 1.037 6.297 2.5 9 0 .667.333 1 1 1-.172.992.162 1.658 1 2-.172.992.162 1.658 1 2 0 .667.333 1 1 1a802.777 802.777 0 0 1 4 5c-.172.992.162 1.658 1 2-.172.992.162 1.658 1 2a96.02 96.02 0 0 1 4 10 72.367 72.367 0 0 1-.5 12l-3.5 3.5a410.978 410.978 0 0 0-34 0c-21.658-9.495-43.324-18.995-65-28.5 0-.667-.333-1-1-1-2.624-.994-5.29-1.994-8-3-.342-.838-1.008-1.172-2-1a173.348 173.348 0 0 0-14-6c-.342-.838-1.008-1.172-2-1-.342-.838-1.008-1.172-2-1-.342-.838-1.008-1.172-2-1a43.355 43.355 0 0 0-7-3c-.709-.904-1.709-1.237-3-1a83.009 83.009 0 0 0-11-5 25.648 25.648 0 0 1-7-3c-2.149-1.236-4.482-2.236-7-3a2200.75 2200.75 0 0 0-50-22 6947.336 6947.336 0 0 1-135-59.5c-1.333-1-1.333-2 0-3 54.516-32.301 112.516-40.635 174-25 27.735 7.697 52.402 20.864 74 39.5 7.667 7 15 14.333 22 22 0 .667.333 1 1 1a60.212 60.212 0 0 0 9.5 11 124.203 124.203 0 0 1 7.5 12c11.392 16.633 20.225 34.633 26.5 54 .498 2.044 1.665 3.378 3.5 4 1.145-4.241 1.312-9.241.5-15a246.532 246.532 0 0 0-7.5-30 224.336 224.336 0 0 0-14-31c0-.667-.333-1-1-1a3571.16 3571.16 0 0 0-8-12c0-.667-.333-1-1-1a1526.925 1526.925 0 0 1-5-6c-56.857-59.73-126.191-82.73-208-69-1.915-.284-3.581.049-5 1-1.599-.268-2.932.066-4 1a174.346 174.346 0 0 0-20 5c-15.464 4.738-30.131 11.072-44 19-.992-.172-1.658.162-2 1-6.638 4.657-13.304 9.324-20 14a303.77 303.77 0 0 0-21-10c-1.083-.865-1.25-1.865-.5-3l7-7a496.296 496.296 0 0 0 10-23c2.67-2.75 5.836-4.583 9.5-5.5l41-1c8.156-2.342 15.156-6.509 21-12.5.667 0 1-.333 1-1 .667 0 1-.333 1-1 .667 0 1-.333 1-1 .667 0 1-.333 1-1 .667 0 1-.333 1-1 .667 0 1-.333 1-1 .667 0 1-.333 1-1 6.207-6.219 13.541-8.052 22-5.5 9.22 2.74 18.22 6.073 27 10 15.532 2.558 30.199.225 44-7 7.436-3.521 15.103-4.521 23-3 8.553 5.547 16.22 12.214 23 20a67.12 67.12 0 0 0 17 6 1624.11 1624.11 0 0 1 36 0c3.402.831 6.402 2.331 9 4.5z"/><path style="opacity:.024" fill="#464646" d="M511.5 145.5v5a2064.164 2064.164 0 0 0-54 54c-1.527.073-2.527-.594-3-2a2299.866 2299.866 0 0 1 57-57z"/><path style="opacity:.024" fill="#474747" d="M511.5 165.5v5l-43 42c-1-.333-1.667-1-2-2a1433.501 1433.501 0 0 1 45-45z"/><path style="opacity:.024" fill="#494949" d="M92.5 184.5c.543.06.876.393 1 1-2.066 5.694-6.066 9.027-12 10 3.333-4 7-7.667 11-11z"/><path style="opacity:.024" fill="#474747" d="M511.5 185.5v5l-38 37c-.934-1.068-1.268-2.401-1-4l39-38zM511.5 205.5v5l-39 38c-.934-1.068-1.268-2.401-1-4l40-39z"/><path style="opacity:1" fill="#05b1ea" d="M88.5 210.5a227.928 227.928 0 0 1 26 12c-28.753 23.169-48.253 52.502-58.5 88a103.421 103.421 0 0 0-4 33c3.338-3.664 5.338-7.997 6-13a327.48 327.48 0 0 1 36-63c11.791-14.129 25.124-26.462 40-37A9001.356 9001.356 0 0 0 351.5 325a4396.85 4396.85 0 0 0 96 42c-143 .667-286 .667-429 0-2.082-2.409-3.082-5.243-3-8.5a48.07 48.07 0 0 1 5.5-19 179.568 179.568 0 0 0 10-15c2.79-6.22 3.123-12.554 1-19l-9-16c-1.567-5.033-.067-8.867 4.5-11.5 9.325-4.661 17.491-10.828 24.5-18.5l3-6c.258-9.676.258-19.343 0-29 2.559-3.031 5.726-5.198 9.5-6.5a310.767 310.767 0 0 0 24-7.5z"/><path style="opacity:.024" fill="#474747" d="M38.5 218.5c.322 1.358.322 3.025 0 5l-39 38v-5l39-38zM511.5 225.5v5l-28 27c-1.527.073-2.527-.594-3-2l31-30z"/><path style="opacity:1" fill="#36baed" d="M304.5 233.5c10.672-.167 21.339 0 32 .5a862.601 862.601 0 0 0-36.5 33.5 4.934 4.934 0 0 0-.5 3 113.434 113.434 0 0 0 36 3.5c4.599-1.598 7.432-4.765 8.5-9.5-.501 8.995-5.334 13.329-14.5 13a1774.926 1774.926 0 0 1-41-7.5c14.865-9.861 28.198-21.528 40-35a90.455 90.455 0 0 0-19 0c-2.619.151-4.953.985-7 2.5l-1-.5c.865-1.359 1.865-2.526 3-3.5z"/><path style="opacity:.024" fill="#474747" d="M38.5 238.5c.734 1.208 1.067 2.541 1 4-7 6.333-13.667 13-20 20-.667 0-1 .333-1 1-.667 0-1 .333-1 1-.667 0-1 .333-1 1a25.647 25.647 0 0 0-6 6c-.667 0-1 .333-1 1-.667 0-1 .333-1 1-.667 0-1 .333-1 1l-8 7v-5l39-38zM511.5 245.5v5l-16 15c-1.527.073-2.527-.594-3-2l19-18z"/><path style="opacity:1" fill="#44bdee" d="M401.5 261.5c.876-.131 1.543.202 2 1-6.884 2.716-12.051 7.382-15.5 14a246.886 246.886 0 0 0-9 19 32.462 32.462 0 0 0-.5 8c3.053-.181 6.053-.348 9-.5-4.343 2.44-8.843 2.94-13.5 1.5-.667-2-.667-4 0-6a36.487 36.487 0 0 0 3.5-11c-6.675-.166-13.342 0-20 .5a80.745 80.745 0 0 0-9.5 16.5c-2.098 1.067-4.265 1.567-6.5 1.5a651.746 651.746 0 0 0 14.5-22.5c2.694-4.379 4.527-9.046 5.5-14a18.453 18.453 0 0 1-6-.5 24.551 24.551 0 0 1 12 .5 356.671 356.671 0 0 1-9 15.5c7 .667 14 .667 21 0a401.382 401.382 0 0 0 9.5-16.5c3.728-3.277 7.895-5.61 12.5-7z"/><path style="opacity:.024" fill="#464646" d="M511.5 265.5v5c-2.667 2-5 4.333-7 7-1.174-1.014-1.84-2.347-2-4l9-8z"/><path style="opacity:.024" fill="#474747" d="M511.5 285.5v5l-9 8 3-8 6-5z"/><path style="opacity:.024" fill="#484848" d="M5.5 291.5c.904.709 1.237 1.709 1 3-2 2.667-4.333 5-7 7v-5l6-5z"/><path style="opacity:.024" fill="#474747" d="M11.5 304.5c1.406.473 2.073 1.473 2 3-4.333 5-9 9.667-14 14v-5a102.052 102.052 0 0 0 12-12zM511.5 305.5v5a102.102 102.102 0 0 0-12 12c-1.406-.473-2.073-1.473-2-3 4.333-5 9-9.667 14-14z"/><path style="opacity:.024" fill="#464646" d="M511.5 325.5v5l-5 4c-.904-.709-1.237-1.709-1-3a25.658 25.658 0 0 1 6-6zM6.5 330.5c-1.327 2.971-2.66 5.971-4 9-.667 0-1 .333-1 1l-2 1v-5l7-6z"/><path style="opacity:.024" fill="#474747" d="m2.5 374.5 2 3-5 4v-5l3-2zM13.5 383.5h4a229.4 229.4 0 0 1-18 18v-5l14-13zM32.5 383.5h5c-12.333 13-25 25.667-38 38v-5a770.64 770.64 0 0 0 33-33zM52.5 383.5h5c-19 19.667-38.333 39-58 58v-5c18-17.333 35.667-35 53-53zM72.5 383.5h5a4304.582 4304.582 0 0 1-78 78v-5c24.667-24 49-48.333 73-73zM92.5 383.5h5l-26 27h-5l26-27zM112.5 383.5h5l-27 28-4-1 26-27zM132.5 383.5h5c-12.333 13-25 25.667-38 38l-1-4c11.667-11 23-22.333 34-34zM152.5 383.5h5l-26 27c-1.879.841-3.879 1.175-6 1l27-28zM172.5 383.5h5c-20 20.667-40.333 41-61 61-.994-1.499-.994-3.166 0-5 .667 0 1-.333 1-1 18.667-18 37-36.333 55-55zM192.5 383.5h5c-12 12.667-24.333 25-37 37a59.648 59.648 0 0 1 7-11l25-26zM212.5 383.5h5l-65 66c-1.599.268-2.932-.066-4-1l64-65zM232.5 383.5h5a1076.763 1076.763 0 0 1-39 39v-5c11.667-11 23-22.333 34-34zM252.5 383.5h5l-23 24a28.906 28.906 0 0 1-8 3l26-27zM272.5 383.5h5l-25 26c-1 .333-1.667 1-2 2l-24 23a19.22 19.22 0 0 0 1-6c.667 0 1-.333 1-1 15-14.333 29.667-29 44-44zM292.5 383.5h5l-25 26a19.22 19.22 0 0 1-6 1l26-27zM312.5 383.5h5l-30 31a6.547 6.547 0 0 1-3-3c9.667-9 19-18.333 28-28zM332.5 383.5h5l-127 128h-5l127-128zM352.5 383.5h5a2064.164 2064.164 0 0 1-54 54 88.153 88.153 0 0 1 6-11c.667 0 1-.333 1-1 5-4.333 9.667-9 14-14 9.667-9 19-18.333 28-28zM372.5 383.5h5l-26 27c-1.333 0-2 .667-2 2-11.667 11-23 22.333-34 34l-6 1 63-64zM392.5 383.5h5c-13 13.667-26.333 27-40 40a35.158 35.158 0 0 1 5-10c.667 0 1-.333 1-1 .667 0 1-.333 1-1 9.667-9 19-18.333 28-28zM412.5 383.5h5c-9 9.667-18.333 19-28 28-.709-.904-1.709-1.237-3-1l26-27zM432.5 383.5h5c-14 14.667-28.333 29-43 43-.734-1.208-1.067-2.541-1-4a1076.763 1076.763 0 0 0 39-39zM452.5 383.5h5a1630.981 1630.981 0 0 1-48 48 35.158 35.158 0 0 1 5-10c.667 0 1-.333 1-1 5-4.333 9.667-9 14-14 .667 0 1-.333 1-1 7.667-7 15-14.333 22-22zM472.5 383.5h5l-27 28a54.343 54.343 0 0 1-9 4l31-32z"/><path style="opacity:.024" fill="#464646" d="m498.5 382.5-28 29c-1.208-.734-2.541-1.067-4-1l26-27a19.22 19.22 0 0 0 6-1z"/><path style="opacity:.024" fill="#474747" d="M511.5 385.5v5a1076.763 1076.763 0 0 0-39 39 19.22 19.22 0 0 1-6 1 1433.501 1433.501 0 0 1 45-45zM511.5 405.5v5c-34 33.333-67.667 67-101 101h-5l39-40c.667 0 1-.333 1-1 .667 0 1-.333 1-1 2-1.333 3.667-3 5-5 .667 0 1-.333 1-1 .667 0 1-.333 1-1 .667 0 1-.333 1-1l57-56z"/><path style="opacity:.766" fill="#08b0e9" d="M234.5 407.5c.91 2.001.077 3.335-2.5 4a69.276 69.276 0 0 0-3.5 16c-.667 0-1 .333-1 1a19.22 19.22 0 0 1-1 6 40.477 40.477 0 0 0-.5 13c1.145 1.184 2.312 1.184 3.5 0 1.879-.107 2.212.393 1 1.5a42.47 42.47 0 0 1-5 1.5c-.667 0-1 .333-1 1-1.967.239-3.801-.094-5.5-1 .083-2.619.25-5.286.5-8 .667 0 1-.333 1-1a19.22 19.22 0 0 1 1-6 105.754 105.754 0 0 0 3.5-19c-10.485 9.978-19.652 20.978-27.5 33-2.138 2.282-4.471 2.949-7 2 .667 0 1-.333 1-1v-5a96.873 96.873 0 0 0 1-16c.841-1.879 1.175-3.879 1-6a32.462 32.462 0 0 0-.5-8 273.474 273.474 0 0 0-20.5 28c-.667 0-1 .333-1 1-.667 0-1 .333-1 1-2.101 2.627-3.434 5.627-4 9 .215 1.679-.452 2.679-2 3 .067-1.459-.266-2.792-1-4 .65-3.64 2.15-6.973 4.5-10a974.374 974.374 0 0 1 26-33c1.993-1.878 4.159-2.212 6.5-1a35.176 35.176 0 0 0-2 8v5c-.713 5.633-1.38 11.3-2 17v5c.333 1.333.667 1.333 1 0 .667 0 1-.333 1-1 8.69-10.353 17.356-20.686 26-31 .333-1 1-1.667 2-2a28.906 28.906 0 0 0 8-3zm-41 16-21 20a273.474 273.474 0 0 1 20.5-28c.497 2.646.664 5.313.5 8z"/><path style="opacity:.784" fill="#08b1ea" d="M252.5 409.5c4.47.986 9.137 1.319 14 1a19.22 19.22 0 0 0 6-1c4.205-.309 8.205.357 12 2a6.547 6.547 0 0 0 3 3c-.744 12.408-7.411 18.742-20 19h-5c.321-1.548 1.321-2.215 3-2h5c5.667-1.667 9.333-5.333 11-11 1.22-1.784 1.22-3.45 0-5-.074-1.911-1.074-3.078-3-3.5a16.242 16.242 0 0 0-8 0 457.215 457.215 0 0 0-17 30.5c-.667 0-1 .333-1 1-1.68 2.226-1.347 3.893 1 5a27.603 27.603 0 0 0 5 1.5c-2.851 1.289-5.851 1.789-9 1.5-1.459.067-2.792-.266-4-1-1.098-1.101-1.265-2.434-.5-4 3.858-7.054 7.691-14.054 11.5-21 .667 0 1-.333 1-1a35.158 35.158 0 0 0 5-10c.111-.617.444-1.117 1-1.5a24.905 24.905 0 0 0-9.5.5c-1.681-.108-2.848-.775-3.5-2 .333-1 1-1.667 2-2zm29 11c-1.667 5.667-5.333 9.333-11 11 3.333-4 7-7.667 11-11z"/><path style="opacity:.831" fill="#0cb0e8" d="M324.5 411.5a12.93 12.93 0 0 0-5 .5c-4.033 3.856-7.033 8.356-9 13.5-.667 0-1 .333-1 1a88.153 88.153 0 0 0-6 11c-2.454 4.289-5.788 7.789-10 10.5a399.722 399.722 0 0 1 16-.5l6-1c2.361.174 4.694.507 7 1a10.098 10.098 0 0 1-1.5 6c-.5-1.167-1.333-2-2.5-2.5-2.42-.29-4.754-.79-7-1.5h-5l-16 1a19.22 19.22 0 0 1-6 1c-.543-.06-.876-.393-1-1a31.283 31.283 0 0 1 5-2c2.667-.667 4.333-2.333 5-5a703.282 703.282 0 0 0 18-31c2.855-1.842 6.022-2.842 9.5-3 1.681.108 2.848.775 3.5 2z"/><path style="opacity:.835" fill="#08b0e8" d="M364.5 411.5c-.667 0-1 .333-1 1-.667 0-1 .333-1 1a35.158 35.158 0 0 0-5 10 26678.603 26678.603 0 0 0-15.5 25c-2.38 2.775-5.213 3.442-8.5 2 2.105-2.092 3.772-4.425 5-7 .667 0 1-.333 1-1 .667 0 1-.333 1-1 3.026-4.684 6.026-9.351 9-14a51.41 51.41 0 0 0 7-15c-2.644.215-4.977.215-7 0 0-1.333.667-2 2-2a40.282 40.282 0 0 0 12-1c.798.457 1.131 1.124 1 2z"/><path style="opacity:.816" fill="#09b0e9" d="M66.5 410.5h20l4 1c3.52.853 6.187 2.853 8 6l1 4c-1.667 18.333-11.667 28.333-30 30h-5a27.349 27.349 0 0 1-10-2 16.485 16.485 0 0 0-5 2c-.11-.617-.444-1.117-1-1.5 1.641-1.129 2.641-2.629 3-4.5a1061.051 1061.051 0 0 0 19-32.5 2.429 2.429 0 0 0-2-.5c-2.12-.175-4.12.159-6 1h-5c-.262-1.478.071-2.811 1-4a19.372 19.372 0 0 0 8 1zm17 2a159.363 159.363 0 0 1-15 15 142.12 142.12 0 0 1 7.5-14c2.38-.935 4.88-1.268 7.5-1zm4 1c4.088 2.087 6.088 5.42 6 10-9 8.333-17.667 17-26 26-9.67.413-11.67-2.921-6-10 9-8.333 17.667-17 26-26zm5 16c-2.99 10.324-9.657 16.991-20 20 6.333-7 13-13.667 20-20z"/><path style="opacity:.824" fill="#0aafe7" d="M167.5 409.5a59.648 59.648 0 0 0-7 11c-6.296 7.424-10.629 15.924-13 25.5.028 1.07.361 1.903 1 2.5 1.068.934 2.401 1.268 4 1a31.71 31.71 0 0 0 6-2c1.333.667 1.333 1.333 0 2a28.322 28.322 0 0 1-10 3h-4c-.672-.767-1.505-1.434-2.5-2-.311-2.932-.478-5.598-.5-8a2349.814 2349.814 0 0 1-10 7l-7 2c-4.571.446-8.904-.22-13-2-.432-1.21-1.099-2.21-2-3a18.991 18.991 0 0 1 1.5-8 246.847 246.847 0 0 0 10.5-18c.667 0 1-.333 1-1a18.67 18.67 0 0 0 3-5c-.825-.886-1.825-1.219-3-1a8.43 8.43 0 0 1-4-.5c-1.333-.667-1.333-1.333 0-2 2.251.207 4.585.373 7 .5 2.121.175 4.121-.159 6-1a12.93 12.93 0 0 1 5 .5 25.55 25.55 0 0 0-6.5 5.5 143.75 143.75 0 0 0-12.5 22c-.667 0-1 .333-1 1-.994 1.834-.994 3.501 0 5 .011 1.517.677 2.684 2 3.5 3.721.678 7.388.511 11-.5 9.333-4.667 16.333-11.667 21-21 2.488-4.306 4.988-8.639 7.5-13 2.703-2.402 5.87-3.735 9.5-4z"/><path style="opacity:.794" fill="#0ab0e8" d="M430.5 405.5c0 .667-.333 1-1 1-6.965 2.298-11.631 6.965-14 14-.667 0-1 .333-1 1a35.158 35.158 0 0 0-5 10 91.846 91.846 0 0 0-9.5 20c-.667 1.333-1.333 1.333-2 0a38.715 38.715 0 0 0-2.5-5c.067-1.459-.266-2.792-1-4-.962-3.895-2.296-7.561-4-11 .067-1.459-.266-2.792-1-4a151.25 151.25 0 0 0-3.5-9 113.363 113.363 0 0 0-13.5 25c-.667 0-1 .333-1 1-.841 1.879-1.175 3.879-1 6-.333 1-1 1.667-2 2-.432-1.21-1.099-2.21-2-3a274.313 274.313 0 0 1 14-28c.667 0 1-.333 1-1 .667 0 1-.333 1-1 1.688-1.977 2.021-3.977 1-6-1.517-1.235-3.184-1.235-5 0-1-.333-1.667-1-2-2a630.07 630.07 0 0 0 10-1c1.291-.237 2.291.096 3 1a53.837 53.837 0 0 0 4 11c-.067 1.459.266 2.792 1 4l4 11c.16 1.653.826 2.986 2 4 .706 1.057 1.039.724 1-1 .667 0 1-.333 1-1a54.343 54.343 0 0 0 4-9 157.887 157.887 0 0 1 17-26.5c2.698-.815 5.032-.315 7 1.5zm-41 22-17 16a113.363 113.363 0 0 1 13.5-25 151.25 151.25 0 0 1 3.5 9z"/><path style="opacity:.024" fill="#474747" d="M68.5 412.5a3368.565 3368.565 0 0 1-69 69v-5a2808.228 2808.228 0 0 0 63-63c1.88-.841 3.88-1.175 6-1zM83.5 412.5c1.459-.067 2.792.266 4 1-8.333 9-17 17.667-26 26 1.637-3.317 3.304-6.65 5-10 .667 0 1-.333 1-1 .667 0 1-.333 1-1a159.363 159.363 0 0 0 15-15zM122.5 413.5c1.175-.219 2.175.114 3 1a18.67 18.67 0 0 1-3 5c-.667 0-1 .333-1 1-30.667 30-61 60.333-91 91h-5l97-98zM383.5 413.5c1.021 2.023.688 4.023-1 6-.667 0-1 .333-1 1-.667 0-1 .333-1 1a5733.475 5733.475 0 0 0-90 90h-5c32.333-33 65-65.667 98-98zM463.5 412.5c1.21.432 2.21 1.099 3 2l-33 34c-1.174-1.014-1.84-2.347-2-4 11-10.333 21.667-21 32-32zM281.5 415.5c1.22 1.55 1.22 3.216 0 5-4 3.333-7.667 7-11 11h-5c5-5.667 10.333-11 16-16z"/><path style="opacity:.024" fill="#494b4c" d="M224.5 412.5a53586.333 53586.333 0 0 1-26 31c-.667 0-1 .333-1 1h-1v-5l28-27z"/><path style="opacity:.024" fill="#474747" d="M93.5 423.5c.175 2.121-.159 4.121-1 6-7 6.333-13.667 13-20 20h-5c8.333-9 17-17.667 26-26zM193.5 423.5c.175 2.121-.159 4.121-1 6l-26 25c.566-3.373 1.899-6.373 4-9 .667 0 1-.333 1-1 .667 0 1-.333 1-1l21-20zM511.5 425.5v5a4644.148 4644.148 0 0 0-81 81h-5c28.333-29 57-57.667 86-86zM432.5 424.5l-5 10c-26 25.333-51.667 51-77 77h-5a5357.625 5357.625 0 0 1 87-87zM389.5 427.5c.734 1.208 1.067 2.541 1 4l-20 19c-.175-2.121.159-4.121 1-6 .667 0 1-.333 1-1l17-16z"/><path style="opacity:.024" fill="#4a4c4d" d="M150.5 426.5c-4.667 9.333-11.667 16.333-21 21a312.323 312.323 0 0 1 21-21z"/><path style="opacity:.793" fill="#0bb0e8" d="M466.5 410.5c1.459-.067 2.792.266 4 1 2.095.26 3.428 1.426 4 3.5a34.307 34.307 0 0 1-3 7.5 135.16 135.16 0 0 0-2.5-7c-.671-.752-1.504-1.086-2.5-1-.79-.901-1.79-1.568-3-2-5.775-.725-11.108.441-16 3.5-9.028 7.504-14.362 17.004-16 28.5.16 1.653.826 2.986 2 4 5.517 2.688 10.85 2.355 16-1 7-2.333 11.667-7 14-14a265.46 265.46 0 0 1-9-1 52.51 52.51 0 0 1 12-2 19.22 19.22 0 0 0 6-1 54990.96 54990.96 0 0 0-18 32c-.667 0-1 .333-1 1-.667 0-1 .333-1 1-.667 0-1 .333-1 1-1.333 2-3 3.667-5 5-.667 0-1 .333-1 1-.667 0-1 .333-1 1-5.365 2.506-11.031 3.506-17 3-1.16-1.703-.493-2.369 2-2 3.872.78 7.539-.053 11-2.5 7.572-6.748 12.906-14.581 16-23.5a19.221 19.221 0 0 1-5 3 29.417 29.417 0 0 1-7 2c-.667 0-1 .333-1 1a38.503 38.503 0 0 1-13-2c-.333-1-1-1.667-2-2-2.307-4.474-2.64-9.141-1-14l5-10a57.51 57.51 0 0 1 9-9 54.343 54.343 0 0 0 9-4 84.029 84.029 0 0 1 16-1z"/><path style="opacity:.024" fill="#474747" d="M349.5 427.5a3720.883 3720.883 0 0 1-9 14c-.667 0-1 .333-1 1-.667 0-1 .333-1 1-23 22.333-45.667 45-68 68h-5a4994.516 4994.516 0 0 1 84-84z"/><path style="opacity:.024" fill="#484849" d="M406.5 430.5a54.343 54.343 0 0 1-4 9c-.667 0-1 .333-1 1-.667 0-1 .333-1 1-1.174-1.014-1.84-2.347-2-4l8-7z"/><path style="opacity:.024" fill="#474747" d="M262.5 433.5h5l-14 15c-2.347-1.107-2.68-2.774-1-5 .667 0 1-.333 1-1a57.51 57.51 0 0 0 9-9z"/><path style="opacity:.024" fill="#494a4b" d="M463.5 433.5c-2.333 7-7 11.667-14 14 4.333-5 9-9.667 14-14z"/><path style="opacity:.024" fill="#474747" d="M221.5 435.5a19.22 19.22 0 0 0-1 6c-.667 0-1 .333-1 1a3370.082 3370.082 0 0 0-69 69h-5c25-25.667 50.333-51 76-76zM394.5 442.5c.734 1.208 1.067 2.541 1 4-22 21.333-43.667 43-65 65h-5a3370.082 3370.082 0 0 1 69-69zM191.5 445.5v5c-.667 0-1 .333-1 1a2548.31 2548.31 0 0 0-60 60h-5a3083.417 3083.417 0 0 1 66-66zM511.5 445.5v5c-20.667 20-41 40.333-61 61h-5a3083.417 3083.417 0 0 1 66-66zM109.5 446.5c.901.79 1.568 1.79 2 3l-61 62h-5l64-65z"/><path style="opacity:.024" fill="#484848" d="M293.5 443.5c-.667 2.667-2.333 4.333-5 5 1.333-2 3-3.667 5-5z"/><path style="opacity:.024" fill="#474747" d="M428.5 448.5c1 .333 1.667 1 2 2l-60 61h-5a2809.493 2809.493 0 0 1 63-63zM51.5 445.5c-.359 1.871-1.359 3.371-3 4.5.556.383.89.883 1 1.5-16.333 17-33 33.667-50 50v-5l52-51zM262.5 414.5a35.158 35.158 0 0 1-5 10c-.667 0-1 .333-1 1-29 28.333-57.667 57-86 86h-5l59-60c.667 0 1-.333 1-1a42.47 42.47 0 0 0 5-1.5c1.212-1.107.879-1.607-1-1.5a770.987 770.987 0 0 1 33-33zM306.5 449.5h5l-61 62h-5l61-62zM131.5 449.5l-61 62h-5l59-60 7-2zM366.5 449.5c.901.79 1.568 1.79 2 3l-58 59h-5l61-62zM451.5 449.5l-22 23c-2.493-.369-3.16.297-2 2-12.667 12-25 24.333-37 37h-5l58-59c.667 0 1-.333 1-1a29.417 29.417 0 0 0 7-2zM64.5 451.5h5l-59 60h-5l59-60zM245.5 450.5c1.208.734 2.541 1.067 4 1l-59 60h-5l60-61zM290.5 450.5l-60 61h-5l59-60a19.22 19.22 0 0 0 6-1zM144.5 452.5h4l-58 59h-5c19.333-20 39-39.667 59-59zM163.5 453.5c.734 1.208 1.067 2.541 1 4a2064.164 2064.164 0 0 0-54 54h-5c19-19.667 38.333-39 58-58zM511.5 465.5v5c-14 13.333-27.667 27-41 41h-5c15-15.667 30.333-31 46-46zM511.5 485.5v5a312.323 312.323 0 0 0-21 21h-5c8.333-9 17-17.667 26-26zM511.5 505.5v5c-.667 0-1 .333-1 1h-5a25.658 25.658 0 0 1 6-6z"/></svg>